<svg width="920" height="930" viewBox="0 0 920 930" fill="none" xmlns="http://www.w3.org/2000/svg">
<ellipse opacity="0.0169492" cx="536.673" cy="427" rx="75.9237" ry="626.371" transform="rotate(140 536.673 427)" stroke="#5731AC" stroke-opacity="0.25" stroke-width="4"/>
<ellipse opacity="0.0338983" cx="536.674" cy="427" rx="75.9237" ry="616.88" transform="rotate(150 536.674 427)" stroke="#5731AC" stroke-opacity="0.25" stroke-width="4"/>
<ellipse opacity="0.0508475" cx="536.673" cy="427" rx="75.9237" ry="607.39" transform="rotate(160 536.673 427)" stroke="#5731AC" stroke-opacity="0.25" stroke-width="4"/>
<ellipse opacity="0.0677966" cx="536.673" cy="427" rx="75.9237" ry="597.899" transform="rotate(170 536.673 427)" stroke="#5731AC" stroke-opacity="0.25" stroke-width="4"/>
<ellipse opacity="0.0847458" cx="536.673" cy="427" rx="75.9237" ry="588.409" transform="rotate(-180 536.673 427)" stroke="#5731AC" stroke-opacity="0.25" stroke-width="4"/>
<ellipse opacity="0.101695" cx="536.673" cy="426.999" rx="75.9237" ry="578.918" transform="rotate(-170 536.673 426.999)" stroke="#5731AC" stroke-opacity="0.25" stroke-width="4"/>
<ellipse opacity="0.118644" cx="536.658" cy="426.985" rx="75.9237" ry="569.428" transform="rotate(-160 536.658 426.985)" stroke="#5731AC" stroke-opacity="0.25" stroke-width="4"/>
<ellipse opacity="0.135593" cx="536.659" cy="426.985" rx="75.9237" ry="559.937" transform="rotate(-150 536.659 426.985)" stroke="#5731AC" stroke-opacity="0.25" stroke-width="4"/>
<ellipse opacity="0.152542" cx="536.657" cy="426.985" rx="75.9237" ry="550.447" transform="rotate(-140 536.657 426.985)" stroke="#5731AC" stroke-opacity="0.25" stroke-width="4"/>
<ellipse opacity="0.169492" cx="536.656" cy="426.985" rx="75.9237" ry="540.956" transform="rotate(-130 536.656 426.985)" stroke="#5731AC" stroke-opacity="0.25" stroke-width="4"/>
<ellipse opacity="0.186441" cx="536.656" cy="426.985" rx="75.9237" ry="531.466" transform="rotate(-120 536.656 426.985)" stroke="#5731AC" stroke-opacity="0.25" stroke-width="4"/>
<ellipse opacity="0.20339" cx="536.657" cy="426.985" rx="75.9237" ry="521.975" transform="rotate(-110 536.657 426.985)" stroke="#5731AC" stroke-opacity="0.25" stroke-width="4"/>
<ellipse opacity="0.220339" cx="536.657" cy="426.986" rx="75.9237" ry="512.485" transform="rotate(-100 536.657 426.986)" stroke="#5731AC" stroke-opacity="0.25" stroke-width="4"/>
<ellipse opacity="0.237288" cx="536.657" cy="426.985" rx="75.9237" ry="502.995" transform="rotate(-90 536.657 426.985)" stroke="#5731AC" stroke-opacity="0.25" stroke-width="4"/>
<ellipse opacity="0.254237" cx="536.657" cy="426.985" rx="75.9237" ry="493.504" transform="rotate(-80 536.657 426.985)" stroke="#5731AC" stroke-opacity="0.25" stroke-width="4"/>
<ellipse opacity="0.271186" cx="536.656" cy="426.985" rx="75.9237" ry="484.014" transform="rotate(-70 536.656 426.985)" stroke="#5731AC" stroke-opacity="0.25" stroke-width="4"/>
<ellipse opacity="0.288136" cx="536.656" cy="426.988" rx="75.9237" ry="474.523" transform="rotate(-60 536.656 426.988)" stroke="#5731AC" stroke-opacity="0.25" stroke-width="4"/>
<ellipse opacity="0.305085" cx="536.656" cy="426.988" rx="75.9237" ry="465.033" transform="rotate(-50 536.656 426.988)" stroke="#5731AC" stroke-opacity="0.25" stroke-width="4"/>
<ellipse opacity="0.322034" cx="536.656" cy="426.988" rx="75.9237" ry="455.542" transform="rotate(-40 536.656 426.988)" stroke="#5731AC" stroke-opacity="0.25" stroke-width="4"/>
<ellipse opacity="0.338983" cx="536.658" cy="426.989" rx="75.9237" ry="446.052" transform="rotate(-30 536.658 426.989)" stroke="#5731AC" stroke-opacity="0.25" stroke-width="4"/>
<ellipse opacity="0.355932" cx="536.658" cy="426.989" rx="75.9237" ry="436.561" transform="rotate(-20 536.658 426.989)" stroke="#5731AC" stroke-opacity="0.25" stroke-width="4"/>
<ellipse opacity="0.372881" cx="536.659" cy="426.989" rx="75.9237" ry="427.071" transform="rotate(-10 536.659 426.989)" stroke="#5731AC" stroke-opacity="0.25" stroke-width="4"/>
<ellipse opacity="0.38983" cx="536.658" cy="426.989" rx="75.9237" ry="417.58" stroke="#5731AC" stroke-opacity="0.25" stroke-width="4"/>
<ellipse opacity="0.40678" cx="536.674" cy="427" rx="75.9237" ry="408.09" transform="rotate(10 536.674 427)" stroke="#5731AC" stroke-opacity="0.25" stroke-width="4"/>
<ellipse opacity="0.423729" cx="536.673" cy="427" rx="75.9237" ry="398.599" transform="rotate(20 536.673 427)" stroke="#5731AC" stroke-opacity="0.25" stroke-width="4"/>
<ellipse opacity="0.440678" cx="536.673" cy="427" rx="75.9237" ry="389.109" transform="rotate(30 536.673 427)" stroke="#5731AC" stroke-opacity="0.25" stroke-width="4"/>
<ellipse opacity="0.457627" cx="536.674" cy="427" rx="75.9237" ry="379.619" transform="rotate(40 536.674 427)" stroke="#5731AC" stroke-opacity="0.25" stroke-width="4"/>
<ellipse opacity="0.474576" cx="536.674" cy="427.001" rx="75.9237" ry="370.128" transform="rotate(50 536.674 427.001)" stroke="#5731AC" stroke-opacity="0.25" stroke-width="4"/>
<ellipse opacity="0.491525" cx="536.675" cy="427" rx="75.9237" ry="360.638" transform="rotate(60 536.675 427)" stroke="#5731AC" stroke-opacity="0.25" stroke-width="4"/>
<ellipse opacity="0.508475" cx="536.673" cy="427.001" rx="75.9237" ry="351.147" transform="rotate(70 536.673 427.001)" stroke="#5731AC" stroke-opacity="0.25" stroke-width="4"/>
<ellipse opacity="0.525424" cx="536.674" cy="427" rx="75.9237" ry="341.657" transform="rotate(80 536.674 427)" stroke="#5731AC" stroke-opacity="0.25" stroke-width="4"/>
<ellipse opacity="0.542373" cx="536.674" cy="427.001" rx="75.9237" ry="332.166" transform="rotate(90 536.674 427.001)" stroke="#5731AC" stroke-opacity="0.25" stroke-width="4"/>
<ellipse opacity="0.559322" cx="536.674" cy="427.001" rx="75.9237" ry="322.676" transform="rotate(100 536.674 427.001)" stroke="#5731AC" stroke-opacity="0.25" stroke-width="4"/>
<ellipse opacity="0.576271" cx="536.674" cy="427.001" rx="75.9237" ry="313.185" transform="rotate(110 536.674 427.001)" stroke="#5731AC" stroke-opacity="0.25" stroke-width="4"/>
<ellipse opacity="0.59322" cx="536.674" cy="427" rx="75.9237" ry="303.695" transform="rotate(120 536.674 427)" stroke="#5731AC" stroke-opacity="0.25" stroke-width="4"/>
<ellipse opacity="0.610169" cx="536.674" cy="427.001" rx="75.9237" ry="294.204" transform="rotate(130 536.674 427.001)" stroke="#5731AC" stroke-opacity="0.25" stroke-width="4"/>
<ellipse opacity="0.627119" cx="536.674" cy="427" rx="75.9237" ry="284.714" transform="rotate(140 536.674 427)" stroke="#5731AC" stroke-opacity="0.25" stroke-width="4"/>
<ellipse opacity="0.644068" cx="536.674" cy="427" rx="75.9237" ry="275.223" transform="rotate(150 536.674 427)" stroke="#5731AC" stroke-opacity="0.25" stroke-width="4"/>
<ellipse opacity="0.661017" cx="536.674" cy="427" rx="75.9237" ry="265.733" transform="rotate(160 536.674 427)" stroke="#5731AC" stroke-opacity="0.25" stroke-width="4"/>
<ellipse opacity="0.677966" cx="536.673" cy="427" rx="75.9237" ry="256.242" transform="rotate(170 536.673 427)" stroke="#5731AC" stroke-opacity="0.25" stroke-width="4"/>
<ellipse opacity="0.694915" cx="536.673" cy="427" rx="75.9237" ry="246.752" transform="rotate(-180 536.673 427)" stroke="#5731AC" stroke-opacity="0.25" stroke-width="4"/>
<ellipse opacity="0.711864" cx="536.673" cy="427" rx="75.9237" ry="237.262" transform="rotate(-170 536.673 427)" stroke="#5731AC" stroke-opacity="0.25" stroke-width="4"/>
<ellipse opacity="0.728814" cx="536.672" cy="427" rx="75.9237" ry="227.771" transform="rotate(-160 536.672 427)" stroke="#5731AC" stroke-opacity="0.25" stroke-width="4"/>
<ellipse opacity="0.745763" cx="536.673" cy="427" rx="75.9237" ry="218.281" transform="rotate(-150 536.673 427)" stroke="#5731AC" stroke-opacity="0.25" stroke-width="4"/>
<ellipse opacity="0.762712" cx="536.658" cy="426.985" rx="75.9237" ry="208.79" transform="rotate(-140 536.658 426.985)" stroke="#5731AC" stroke-opacity="0.25" stroke-width="4"/>
<ellipse opacity="0.779661" cx="536.658" cy="426.986" rx="75.9237" ry="199.3" transform="rotate(-130 536.658 426.986)" stroke="#5731AC" stroke-opacity="0.25" stroke-width="4"/>
<ellipse opacity="0.79661" cx="536.659" cy="426.985" rx="75.9237" ry="189.809" transform="rotate(-120 536.659 426.985)" stroke="#5731AC" stroke-opacity="0.25" stroke-width="4"/>
<ellipse opacity="0.813559" cx="536.659" cy="426.985" rx="75.9237" ry="180.319" transform="rotate(-110 536.659 426.985)" stroke="#5731AC" stroke-opacity="0.25" stroke-width="4"/>
<ellipse opacity="0.830508" cx="536.659" cy="426.985" rx="75.9237" ry="170.828" transform="rotate(-100 536.659 426.985)" stroke="#5731AC" stroke-opacity="0.25" stroke-width="4"/>
<ellipse opacity="0.847458" cx="536.659" cy="426.985" rx="75.9237" ry="161.338" transform="rotate(-90 536.659 426.985)" stroke="#5731AC" stroke-opacity="0.25" stroke-width="4"/>
<ellipse opacity="0.864407" cx="536.659" cy="426.985" rx="75.9237" ry="151.847" transform="rotate(-80 536.659 426.985)" stroke="#5731AC" stroke-opacity="0.25" stroke-width="4"/>
<ellipse opacity="0.881356" cx="536.659" cy="426.985" rx="75.9237" ry="142.357" transform="rotate(-70 536.659 426.985)" stroke="#5731AC" stroke-opacity="0.25" stroke-width="4"/>
<ellipse opacity="0.898305" cx="536.658" cy="426.985" rx="75.9237" ry="132.866" transform="rotate(-60 536.658 426.985)" stroke="#5731AC" stroke-opacity="0.25" stroke-width="4"/>
<ellipse opacity="0.915254" cx="536.659" cy="426.986" rx="75.9237" ry="123.376" transform="rotate(-50 536.659 426.986)" stroke="#5731AC" stroke-opacity="0.25" stroke-width="4"/>
<ellipse opacity="0.932203" cx="536.659" cy="426.985" rx="75.9237" ry="113.886" transform="rotate(-40 536.659 426.985)" stroke="#5731AC" stroke-opacity="0.25" stroke-width="4"/>
<ellipse opacity="0.949153" cx="536.659" cy="426.985" rx="75.9237" ry="104.395" transform="rotate(-30 536.659 426.985)" stroke="#5731AC" stroke-opacity="0.25" stroke-width="4"/>
<ellipse opacity="0.966102" cx="536.659" cy="426.985" rx="75.9237" ry="94.9046" transform="rotate(-20 536.659 426.985)" stroke="#5731AC" stroke-opacity="0.25" stroke-width="4"/>
<ellipse opacity="0.983051" cx="536.658" cy="426.985" rx="75.9237" ry="85.4142" transform="rotate(-10 536.658 426.985)" stroke="#5731AC" stroke-opacity="0.25" stroke-width="4"/>
<circle cx="536.658" cy="426.985" r="75.9237" stroke="#5731AC" stroke-opacity="0.25" stroke-width="4"/>
</svg>
