<svg width="556" height="535" viewBox="0 0 556 535" fill="none" xmlns="http://www.w3.org/2000/svg">
<path d="M553.5 270C553.5 406.69 442.67 517.5 305.954 517.5C169.238 517.5 58.4083 406.69 58.4083 270C58.4083 133.31 169.238 22.5 305.954 22.5C442.67 22.5 553.5 133.31 553.5 270Z" stroke="url(#paint0_linear_17_70)" stroke-width="5"/>
<ellipse cx="308.557" cy="265" rx="169.531" ry="170" fill="#575DFB" fill-opacity="0.1"/>
<rect x="163.78" y="237.75" width="289.553" height="54.5" rx="15.25" stroke="#575DFB" stroke-width="1.5"/>
<path fill-rule="evenodd" clip-rule="evenodd" d="M194.139 258.503C194.36 258.274 194.625 258.091 194.918 257.965C195.211 257.84 195.526 257.773 195.845 257.771C196.163 257.768 196.479 257.829 196.774 257.949C197.069 258.07 197.337 258.248 197.563 258.473C197.788 258.699 197.966 258.967 198.087 259.262C198.208 259.557 198.269 259.873 198.266 260.191C198.263 260.51 198.197 260.825 198.071 261.118C197.945 261.411 197.762 261.675 197.533 261.897L193.932 265.497C193.482 265.947 192.872 266.199 192.235 266.199C191.599 266.199 190.988 265.947 190.538 265.497C190.312 265.278 190.009 265.157 189.694 265.16C189.379 265.163 189.078 265.289 188.856 265.511C188.633 265.734 188.507 266.035 188.504 266.35C188.501 266.664 188.622 266.967 188.841 267.194C189.741 268.093 190.962 268.599 192.235 268.599C193.508 268.599 194.729 268.093 195.63 267.194L199.23 263.594C200.105 262.688 200.589 261.476 200.578 260.217C200.567 258.959 200.062 257.755 199.172 256.865C198.282 255.975 197.077 255.47 195.819 255.459C194.56 255.448 193.347 255.932 192.442 256.806L190.641 258.606C190.527 258.717 190.435 258.85 190.372 258.996C190.31 259.142 190.276 259.3 190.275 259.459C190.274 259.618 190.304 259.776 190.364 259.924C190.425 260.071 190.514 260.205 190.627 260.318C190.739 260.431 190.873 260.52 191.021 260.58C191.168 260.641 191.326 260.671 191.486 260.67C191.645 260.668 191.802 260.635 191.949 260.572C192.095 260.509 192.228 260.418 192.339 260.303L194.139 258.503ZM188.138 264.503C188.588 264.053 189.198 263.801 189.835 263.801C190.471 263.801 191.082 264.053 191.532 264.503C191.643 264.618 191.775 264.709 191.922 264.772C192.068 264.835 192.225 264.868 192.385 264.87C192.544 264.871 192.702 264.841 192.85 264.78C192.997 264.72 193.131 264.631 193.244 264.518C193.357 264.405 193.446 264.271 193.506 264.124C193.566 263.976 193.597 263.818 193.595 263.659C193.594 263.5 193.561 263.342 193.498 263.196C193.435 263.05 193.344 262.917 193.229 262.806C192.329 261.907 191.108 261.401 189.835 261.401C188.562 261.401 187.341 261.907 186.441 262.806L182.84 266.406C182.381 266.849 182.016 267.379 181.764 267.964C181.512 268.55 181.38 269.18 181.374 269.817C181.369 270.455 181.49 271.087 181.732 271.677C181.973 272.266 182.33 272.802 182.78 273.253C183.231 273.704 183.767 274.06 184.357 274.302C184.947 274.543 185.579 274.664 186.217 274.659C186.854 274.653 187.484 274.521 188.07 274.269C188.656 274.018 189.186 273.652 189.628 273.194L191.429 271.394C191.543 271.283 191.635 271.15 191.698 271.004C191.761 270.858 191.794 270.7 191.795 270.541C191.796 270.382 191.766 270.224 191.706 270.076C191.645 269.929 191.556 269.795 191.444 269.682C191.331 269.569 191.197 269.48 191.049 269.42C190.902 269.359 190.744 269.329 190.585 269.331C190.425 269.332 190.268 269.365 190.121 269.428C189.975 269.491 189.842 269.582 189.732 269.697L187.931 271.497C187.71 271.726 187.445 271.909 187.152 272.035C186.859 272.16 186.544 272.227 186.226 272.229C185.907 272.232 185.591 272.171 185.296 272.051C185.001 271.93 184.733 271.752 184.507 271.527C184.282 271.301 184.104 271.033 183.983 270.738C183.862 270.443 183.802 270.127 183.804 269.809C183.807 269.49 183.873 269.175 183.999 268.882C184.125 268.589 184.308 268.325 184.537 268.103L188.138 264.503Z" fill="url(#paint1_linear_17_70)"/>
<path d="M218.335 260.76H211.279V261.912H214.143V271H215.455V261.912H218.335V260.76ZM221.808 271.208C224.064 271.208 225.6 269.512 225.6 267.4C225.6 265.304 224.064 263.608 221.808 263.608C219.568 263.608 218.016 265.304 218.016 267.4C218.016 269.512 219.568 271.208 221.808 271.208ZM221.808 270.104C220.368 270.104 219.344 268.92 219.344 267.4C219.344 265.896 220.368 264.712 221.808 264.712C223.264 264.712 224.288 265.896 224.288 267.4C224.288 268.92 223.264 270.104 221.808 270.104ZM230.911 263.608C229.807 263.608 228.927 264.088 228.367 264.872L228.239 263.8H227.135V274.376H228.399V269.992C228.975 270.744 229.823 271.208 230.911 271.208C232.799 271.208 234.303 269.752 234.303 267.4C234.303 265.064 232.799 263.608 230.911 263.608ZM230.655 270.12C229.183 270.12 228.239 268.936 228.239 267.4C228.239 265.88 229.183 264.696 230.655 264.696C232.095 264.696 233.007 265.88 233.007 267.4C233.007 268.936 232.095 270.12 230.655 270.12ZM235.818 271H237.082V260.12H235.818V271ZM239.782 262.264C240.262 262.264 240.662 261.88 240.662 261.384C240.662 260.888 240.262 260.488 239.782 260.488C239.286 260.488 238.886 260.888 238.886 261.384C238.886 261.88 239.286 262.264 239.782 262.264ZM239.158 271H240.39V263.8H239.158V271ZM245.954 263.608C245.074 263.608 244.29 263.928 243.73 264.68L243.57 263.8H242.466V271H243.73V266.984C243.858 265.272 244.802 264.712 245.682 264.712C246.882 264.712 247.41 265.592 247.41 266.792V271H248.674V266.584C248.674 264.312 247.234 263.608 245.954 263.608ZM257.161 271L253.129 267.064L256.713 263.8H255.001L251.945 266.6V260.12H250.681V271H251.945V267.576L255.433 271H257.161ZM258.93 271.144C259.426 271.144 259.826 270.744 259.826 270.248C259.826 269.752 259.426 269.352 258.93 269.352C258.434 269.352 258.034 269.752 258.034 270.248C258.034 270.744 258.434 271.144 258.93 271.144ZM264.684 271.208C265.66 271.208 266.476 270.888 267.116 270.376L266.364 269.496C265.932 269.88 265.372 270.12 264.684 270.12C263.164 270.12 262.252 268.936 262.252 267.4C262.252 265.88 263.164 264.696 264.684 264.696C265.372 264.696 265.932 264.92 266.364 265.32L267.116 264.424C266.476 263.912 265.66 263.608 264.684 263.608C262.46 263.608 260.956 265.304 260.956 267.4C260.956 269.512 262.46 271.208 264.684 271.208ZM271.604 271.208C273.86 271.208 275.396 269.512 275.396 267.4C275.396 265.304 273.86 263.608 271.604 263.608C269.364 263.608 267.812 265.304 267.812 267.4C267.812 269.512 269.364 271.208 271.604 271.208ZM271.604 270.104C270.164 270.104 269.14 268.92 269.14 267.4C269.14 265.896 270.164 264.712 271.604 264.712C273.06 264.712 274.084 265.896 274.084 267.4C274.084 268.92 273.06 270.104 271.604 270.104ZM275.89 272.936H276.962L282.722 259.864H281.65L275.89 272.936ZM290.457 260.76V265.16H285.337V260.76H284.025V271H285.337V266.248H290.457V271H291.769V260.76H290.457ZM299.677 263.8L299.517 264.904C298.941 264.088 298.061 263.608 296.941 263.608C295.053 263.608 293.549 265.064 293.549 267.4C293.549 269.752 295.053 271.208 296.941 271.208C298.061 271.208 298.941 270.712 299.501 269.912L299.677 271H300.717V263.8H299.677ZM297.197 270.12C295.757 270.12 294.845 268.936 294.845 267.4C294.845 265.88 295.757 264.696 297.197 264.696C298.669 264.696 299.613 265.88 299.613 267.4C299.613 268.936 298.669 270.12 297.197 270.12ZM306.281 263.608C305.401 263.608 304.617 263.928 304.057 264.68L303.897 263.8H302.793V271H304.057V266.984C304.185 265.272 305.129 264.712 306.009 264.712C307.209 264.712 307.737 265.592 307.737 266.792V271H309.001V266.584C309.001 264.312 307.561 263.608 306.281 263.608ZM317.487 271L313.455 267.064L317.039 263.8H315.327L312.271 266.6V260.12H311.007V271H312.271V267.576L315.759 271H317.487Z" fill="black"/>
<rect y="194" width="120" height="120" rx="60" fill="#EF3123"/>
<path d="M66.7514 232.866H50.159C47.52 232.866 45.3792 235.009 45.3792 237.637V255.643H29.0107V237.637C29.0107 225.959 38.4725 216.5 50.159 216.5H66.7514V232.866Z" fill="white"/>
<path d="M53.2458 275.132H69.8494C72.4772 275.132 74.6237 272.992 74.6237 270.355V252.355H90.9893V270.355C90.9893 282.033 81.5248 291.5 69.8494 291.5H53.2458V275.132Z" fill="white"/>
<g clip-path="url(#clip0_17_70)">
<rect x="98" y="65" width="64" height="64" rx="32" fill="#F86300"/>
<path d="M117.31 93.4897H108.667M117.31 93.4897L130 118.138M117.31 93.4897H142.69M117.31 93.4897L117.981 81.0944M117.31 93.4897L130 79.8335M108.667 93.4897L130 118.138M108.667 93.4897L117.981 81.0944M130 118.138L142.69 93.4897M130 118.138L151.333 93.4897M142.69 93.4897H151.333M142.69 93.4897L130 79.8335M142.69 93.4897L142.029 81.0944M151.333 93.4897L142.029 81.0944M117.981 81.0944L130 79.8335M130 79.8335L142.029 81.0944" stroke="white" stroke-width="2.66667" stroke-linecap="round" stroke-linejoin="round"/>
</g>
<g clip-path="url(#clip1_17_70)">
<rect x="82" y="390" width="64" height="64" rx="32" fill="#611F69"/>
<path d="M108.322 400.667C105.97 400.667 104.064 402.577 104.064 404.933C104.063 405.493 104.173 406.047 104.387 406.564C104.6 407.082 104.914 407.552 105.309 407.948C105.705 408.344 106.174 408.659 106.691 408.873C107.208 409.088 107.762 409.199 108.322 409.2H112.581V404.933C112.582 403.803 112.133 402.718 111.335 401.918C110.536 401.118 109.452 400.668 108.322 400.667ZM108.322 412.044H96.9666C94.6149 412.044 92.7087 413.954 92.7087 416.311C92.7087 418.667 94.6149 420.578 96.9666 420.578H108.323C110.674 420.578 112.581 418.667 112.581 416.311C112.581 413.954 110.674 412.044 108.322 412.044Z" fill="white"/>
<path d="M135.291 416.311C135.291 413.954 133.384 412.044 131.033 412.044C128.681 412.044 126.775 413.954 126.775 416.311V420.578H131.033C132.163 420.577 133.247 420.126 134.045 419.326C134.844 418.526 135.292 417.442 135.291 416.311ZM123.936 416.311V404.933C123.937 403.803 123.489 402.718 122.69 401.918C121.891 401.118 120.808 400.668 119.677 400.667C117.325 400.667 115.419 402.577 115.419 404.933V416.31C115.419 418.668 117.325 420.578 119.677 420.578C120.808 420.577 121.891 420.127 122.69 419.327C123.489 418.527 123.937 417.442 123.936 416.312" fill="white"/>
<path d="M119.677 443.333C120.808 443.332 121.891 442.882 122.69 442.082C123.489 441.282 123.937 440.197 123.936 439.067C123.937 437.936 123.489 436.851 122.69 436.051C121.891 435.251 120.808 434.801 119.677 434.8H115.419V439.067C115.419 441.423 117.325 443.333 119.677 443.333ZM119.677 431.956H131.033C133.384 431.956 135.291 430.045 135.291 427.688C135.292 426.558 134.844 425.473 134.045 424.673C133.247 423.873 132.163 423.423 131.033 423.422H119.677C117.325 423.422 115.419 425.332 115.419 427.688C115.419 428.248 115.528 428.802 115.742 429.32C115.956 429.837 116.269 430.307 116.665 430.704C117.06 431.1 117.53 431.414 118.046 431.629C118.563 431.844 119.118 431.954 119.677 431.955" fill="white"/>
<path d="M92.7087 427.688C92.7081 428.248 92.8178 428.802 93.0315 429.32C93.2451 429.837 93.5586 430.307 93.954 430.704C94.3494 431.1 94.819 431.414 95.3359 431.629C95.8528 431.844 96.4069 431.954 96.9666 431.955C98.0971 431.954 99.1809 431.504 99.9795 430.704C100.778 429.903 101.226 428.819 101.225 427.688V423.422H96.9666C94.6149 423.422 92.7087 425.332 92.7087 427.688ZM104.064 427.688V439.066C104.064 441.423 105.97 443.333 108.322 443.333C109.452 443.332 110.536 442.882 111.335 442.082C112.133 441.282 112.582 440.197 112.581 439.067V427.688C112.581 427.129 112.471 426.574 112.258 426.057C112.044 425.539 111.73 425.069 111.335 424.673C110.94 424.277 110.47 423.962 109.953 423.748C109.436 423.533 108.882 423.422 108.322 423.422C105.97 423.422 104.064 425.332 104.064 427.688Z" fill="white"/>
</g>
<g clip-path="url(#clip2_17_70)">
<rect x="226" y="479" width="56" height="56" rx="28" fill="url(#paint2_linear_17_70)"/>
<path d="M267.809 520.809C264.118 524.5 259.221 526.529 254 526.529C248.779 526.529 243.882 524.5 240.191 520.809C236.5 517.132 234.471 512.221 234.471 507H233C233 518.603 242.397 528 254 528C265.603 528 275 518.603 275 507H273.529C273.529 512.221 271.5 517.132 267.809 520.809Z" fill="url(#paint3_linear_17_70)"/>
<path d="M240.191 493.191C243.882 489.5 248.779 487.471 254 487.471C259.221 487.471 264.118 489.5 267.809 493.191C271.5 496.882 273.529 501.779 273.529 507H275C275 495.397 265.603 486 254 486C242.397 486 233 495.397 233 507H234.471C234.471 501.779 236.5 496.882 240.191 493.191Z" fill="url(#paint4_linear_17_70)"/>
<path d="M254 500.073C256.445 500.073 258.426 498.091 258.426 495.647C258.426 493.202 256.445 491.22 254 491.22C251.555 491.22 249.573 493.202 249.573 495.647C249.573 498.091 251.555 500.073 254 500.073Z" fill="white"/>
<path d="M263.897 516.706C266.342 516.706 268.323 514.724 268.323 512.279C268.323 509.835 266.342 507.853 263.897 507.853C261.452 507.853 259.471 509.835 259.471 512.279C259.471 514.724 261.452 516.706 263.897 516.706Z" fill="white"/>
<path d="M243.971 516.706C246.415 516.706 248.397 514.724 248.397 512.279C248.397 509.835 246.415 507.853 243.971 507.853C241.526 507.853 239.544 509.835 239.544 512.279C239.544 514.724 241.526 516.706 243.971 516.706Z" fill="white"/>
<path d="M259.603 495.647C259.603 496.588 259.368 497.47 258.956 498.25C261.912 499.926 263.941 503.073 264.059 506.691C265.265 506.72 266.382 507.147 267.279 507.823C267.294 507.544 267.309 507.279 267.309 507C267.309 501.632 264.132 497.015 259.559 494.912C259.588 495.162 259.603 495.397 259.603 495.647Z" fill="white"/>
<path d="M259.338 515.529C257.794 516.5 255.971 517.059 254 517.059C252 517.059 250.132 516.47 248.574 515.456C247.926 516.397 246.985 517.132 245.897 517.529C248.147 519.264 250.956 520.294 254 520.294C257.029 520.294 259.824 519.279 262.059 517.573C260.956 517.191 260 516.456 259.338 515.529Z" fill="white"/>
<path d="M243.956 506.691C244.074 503.073 246.088 499.941 249.059 498.25C248.647 497.47 248.412 496.588 248.412 495.647C248.412 495.397 248.426 495.162 248.456 494.912C243.882 497.015 240.706 501.632 240.706 507C240.706 507.235 240.706 507.485 240.721 507.72C241.647 507.073 242.75 506.691 243.956 506.691Z" fill="white"/>
</g>
<g clip-path="url(#clip3_17_70)">
<rect x="226" width="56" height="56" rx="28" fill="#F48024"/>
<path d="M263.318 39.2364V30.4668H266.606V42.525H240.297V30.4668H243.586V39.2364" fill="white"/>
<path d="M246.217 30.5766L261.081 32.7252L261.268 30.1162L246.732 27.3209L246.217 30.5766ZM248.19 23.1224L261.345 29.2612L262.55 26.6303L249.396 20.4916L248.19 23.1224ZM251.917 16.6548L263.098 25.9726L264.962 23.7802L253.781 14.4624L251.917 16.6548ZM259.043 9.8584L256.741 11.6123L265.401 23.2321L267.703 21.4781L259.043 9.8584ZM245.778 37.0442H261.125V33.7556H245.778V37.0442Z" fill="white"/>
</g>
<defs>
<linearGradient id="paint0_linear_17_70" x1="55.9083" y1="243.904" x2="448.082" y2="244.5" gradientUnits="userSpaceOnUse">
<stop stop-color="#0F43F9"/>
<stop offset="1" stop-color="#0F43F9" stop-opacity="0"/>
</linearGradient>
<linearGradient id="paint1_linear_17_70" x1="190.976" y1="255.459" x2="190.976" y2="274.659" gradientUnits="userSpaceOnUse">
<stop stop-color="#673AB7"/>
<stop offset="1" stop-color="#512DA8"/>
</linearGradient>
<linearGradient id="paint2_linear_17_70" x1="253.99" y1="534.992" x2="253.99" y2="479" gradientUnits="userSpaceOnUse">
<stop stop-color="#448FF7"/>
<stop offset="1" stop-color="#5EA6F8"/>
</linearGradient>
<linearGradient id="paint3_linear_17_70" x1="233" y1="517.505" x2="275.006" y2="517.505" gradientUnits="userSpaceOnUse">
<stop stop-color="white" stop-opacity="0"/>
<stop offset="1" stop-color="white"/>
</linearGradient>
<linearGradient id="paint4_linear_17_70" x1="233" y1="496.502" x2="275.006" y2="496.502" gradientUnits="userSpaceOnUse">
<stop stop-color="white"/>
<stop offset="1" stop-color="white" stop-opacity="0"/>
</linearGradient>
<clipPath id="clip0_17_70">
<rect width="64" height="64" fill="white" transform="translate(98 65)"/>
</clipPath>
<clipPath id="clip1_17_70">
<rect width="64" height="64" fill="white" transform="translate(82 390)"/>
</clipPath>
<clipPath id="clip2_17_70">
<rect width="56" height="56" fill="white" transform="translate(226 479)"/>
</clipPath>
<clipPath id="clip3_17_70">
<rect width="56" height="56" fill="white" transform="translate(226)"/>
</clipPath>
</defs>
</svg>
