<svg width="36" height="36" viewBox="0 0 36 36" fill="none" xmlns="http://www.w3.org/2000/svg">
<path d="M18 30.75C25.0416 30.75 30.75 25.0416 30.75 18C30.75 10.9584 25.0416 5.25 18 5.25C10.9584 5.25 5.25 10.9584 5.25 18C5.25 25.0416 10.9584 30.75 18 30.75Z" fill="url(#paint0_linear_15_100)"/>
<path d="M15.6625 23.8438C15.2494 23.8438 15.3196 23.6878 15.1772 23.2945L13.9625 19.2969L23.3125 13.75" fill="#C8DAEA"/>
<path d="M15.6625 23.8438C15.9812 23.8438 16.1221 23.698 16.3 23.525L18 21.872L15.8795 20.5933" fill="#A9C9DD"/>
<path d="M15.8792 20.5934L21.0175 24.3896C21.6038 24.7131 22.027 24.5456 22.1731 23.8452L24.2646 13.9891C24.4787 13.1306 23.9373 12.7412 23.3764 12.9959L11.095 17.7315C10.2567 18.0678 10.2615 18.5355 10.9422 18.7439L14.0939 19.7276L21.3904 15.1243C21.7348 14.9154 22.051 15.0277 21.7915 15.258" fill="url(#paint1_linear_15_100)"/>
<defs>
<linearGradient id="paint0_linear_15_100" x1="22.2508" y1="9.50085" x2="15.8758" y2="24.375" gradientUnits="userSpaceOnUse">
<stop stop-color="#37AEE2"/>
<stop offset="1" stop-color="#1E96C8"/>
</linearGradient>
<linearGradient id="paint1_linear_15_100" x1="19.5943" y1="17.9997" x2="21.5895" y2="22.54" gradientUnits="userSpaceOnUse">
<stop stop-color="#EFF7FC"/>
<stop offset="1" stop-color="white"/>
</linearGradient>
</defs>
</svg>
