<svg width="80" height="80" viewBox="0 0 80 80" fill="none" xmlns="http://www.w3.org/2000/svg">
<g clip-path="url(#clip0_33_2852)">
<rect width="80" height="80" rx="40" fill="#299D37"/>
<path fill-rule="evenodd" clip-rule="evenodd" d="M66.6666 40.0294C66.4707 54.6173 54.5892 66.3402 40 66.3402C25.4108 66.3402 13.5293 54.6173 13.3333 40.0294C13.3333 39.4399 13.3574 38.8504 13.3935 38.2729L29.5391 47.4525L63.7311 28.0105C65.6657 31.721 66.6729 35.8449 66.6666 40.0294ZM29.5391 40.7633L14.5124 32.2213C14.2097 33.1713 13.9686 34.1398 13.7905 35.1208L29.5391 44.0718L62.2633 25.4719C61.7265 24.6653 61.1441 23.8901 60.5188 23.15L29.5391 40.7633ZM58.4976 20.9844C57.752 20.2808 56.9688 19.6182 56.1516 18.9993L29.5391 34.1342L16.8343 26.9036C16.3535 27.7369 15.9197 28.5965 15.535 29.4783L29.5391 37.4428L58.4976 20.9844ZM29.5391 30.9821L53.4566 17.3871C52.4537 16.8045 51.4126 16.29 50.3406 15.8472L29.5391 27.6616L20.2752 22.404C19.6149 23.121 18.9925 23.872 18.4104 24.6538L29.5391 30.9821Z" fill="white"/>
</g>
<defs>
<clipPath id="clip0_33_2852">
<rect width="80" height="80" fill="white"/>
</clipPath>
</defs>
</svg>
